<svg aria-hidden="true" style="position: absolute; width: 0; height: 0; overflow: hidden;" version="1.1" xmlns="http://www.w3.org/2000/svg" xmlns:xlink="http://www.w3.org/1999/xlink">
<defs>
<symbol id="icon-facebook" viewBox="0 0 32 32">
<path d="M22.512 0.007l-3.617-0.007c-4.064 0-6.69 3.091-6.69 7.875v3.631h-3.637c-0.314 0-0.569 0.292-0.569 0.653v5.261c0 0.361 0.255 0.652 0.569 0.652h3.637v13.275c0 0.36 0.254 0.652 0.569 0.652h4.745c0.314 0 0.569-0.292 0.569-0.652v-13.275h4.252c0.314 0 0.569-0.292 0.569-0.652l0.002-5.261c0-0.173-0.060-0.339-0.167-0.461s-0.252-0.191-0.402-0.191h-4.254v-3.078c0-1.479 0.307-2.23 1.987-2.23l2.437-0.001c0.314 0 0.568-0.292 0.568-0.652v-4.885c0-0.36-0.254-0.652-0.568-0.652z"></path>
</symbol>
<symbol id="icon-instagram" viewBox="0 0 32 32">
<path d="M16.316 32c-0.106 0-0.212 0-0.319-0-2.508 0.006-4.826-0.058-7.080-0.195-2.066-0.126-3.953-0.84-5.455-2.065-1.45-1.182-2.44-2.781-2.942-4.75-0.438-1.715-0.461-3.398-0.483-5.026-0.016-1.168-0.033-2.553-0.036-3.96 0.003-1.414 0.020-2.798 0.036-3.966 0.022-1.628 0.045-3.311 0.483-5.026 0.503-1.97 1.493-3.568 2.942-4.75 1.503-1.225 3.389-1.939 5.456-2.065 2.254-0.137 4.572-0.201 7.086-0.195 2.509-0.005 4.826 0.058 7.080 0.195 2.066 0.126 3.953 0.84 5.455 2.065 1.45 1.182 2.44 2.781 2.943 4.75 0.437 1.715 0.461 3.398 0.483 5.026 0.016 1.168 0.033 2.553 0.036 3.96v0.006c-0.003 1.408-0.020 2.792-0.036 3.96-0.022 1.628-0.045 3.311-0.483 5.026-0.503 1.97-1.493 3.568-2.943 4.75-1.502 1.225-3.389 1.939-5.455 2.065-2.159 0.131-4.376 0.195-6.768 0.195zM15.997 29.5c2.468 0.006 4.733-0.056 6.934-0.19 1.563-0.095 2.917-0.602 4.027-1.507 1.026-0.837 1.732-1.991 2.1-3.431 0.364-1.428 0.385-2.96 0.406-4.442 0.016-1.16 0.032-2.535 0.036-3.929-0.004-1.394-0.020-2.769-0.036-3.929-0.020-1.482-0.041-3.015-0.406-4.443-0.367-1.44-1.074-2.594-2.1-3.431-1.11-0.905-2.465-1.412-4.027-1.507-2.201-0.134-4.467-0.196-6.928-0.19-2.467-0.006-4.733 0.056-6.934 0.19-1.563 0.095-2.917 0.602-4.027 1.507-1.026 0.837-1.732 1.991-2.1 3.431-0.364 1.428-0.385 2.96-0.406 4.443-0.016 1.161-0.032 2.537-0.036 3.932 0.003 1.389 0.020 2.765 0.036 3.926 0.020 1.482 0.041 3.015 0.406 4.442 0.367 1.44 1.074 2.594 2.1 3.431 1.11 0.905 2.465 1.412 4.027 1.507 2.201 0.134 4.467 0.197 6.928 0.191zM15.937 23.812c-4.308 0-7.813-3.505-7.813-7.812s3.505-7.813 7.813-7.813c4.308 0 7.813 3.505 7.813 7.813s-3.505 7.812-7.813 7.812zM15.937 10.687c-2.929 0-5.313 2.383-5.313 5.313s2.383 5.312 5.313 5.312c2.93 0 5.313-2.383 5.313-5.312s-2.383-5.313-5.313-5.313zM24.625 5.687c-1.035 0-1.875 0.839-1.875 1.875s0.84 1.875 1.875 1.875c1.036 0 1.875-0.839 1.875-1.875s-0.839-1.875-1.875-1.875z"></path>
</symbol>
<symbol id="icon-i" viewBox="0 0 32 32">
<path fill="#fff" style="fill: var(--color1, #fff); stroke: var(--color2, #f3848c)" stroke="#f3848c" stroke-linejoin="miter" stroke-linecap="butt" stroke-miterlimit="4" stroke-width="1.3333" d="M31.333 16c0 8.468-6.865 15.333-15.333 15.333s-15.333-6.865-15.333-15.333c0-8.468 6.865-15.333 15.333-15.333s15.333 6.865 15.333 15.333z"></path>
<path fill="#fff" style="fill: var(--color1, #fff)" d="M29.333 16c0 7.364-5.97 13.333-13.333 13.333s-13.333-5.97-13.333-13.333c0-7.364 5.97-13.333 13.333-13.333s13.333 5.97 13.333 13.333z"></path>
<path fill="none" stroke="#f3848c" style="stroke: var(--color2, #f3848c)" stroke-linejoin="miter" stroke-linecap="round" stroke-miterlimit="4" stroke-width="0.6667" d="M29 16c0 7.18-5.82 13-13 13s-13-5.82-13-13c0-7.18 5.82-13 13-13s13 5.82 13 13z"></path>
<path fill="#000" style="fill: var(--color3, #000)" d="M9.333 10.953c0 1.413 1.031 2.586 2.381 2.814v4.329c0 0.126 0.050 0.247 0.139 0.337s0.21 0.14 0.337 0.14h7.62c0.126 0 0.247-0.050 0.337-0.14s0.139-0.21 0.139-0.337v-4.329c1.349-0.228 2.38-1.401 2.38-2.814 0-1.576-1.281-2.857-2.857-2.857h-1.078c-0.603-0.862-1.602-1.429-2.732-1.429s-2.129 0.566-2.732 1.429h-1.078c-0.758 0.001-1.484 0.302-2.019 0.838s-0.837 1.262-0.838 2.019zM12.666 17.144h6.668v0.475h-6.668v-0.475zM12.191 9.048h0.616c-0.093 0.309-0.14 0.63-0.14 0.952 0 0.126 0.050 0.247 0.139 0.337s0.21 0.139 0.337 0.139c0.126 0 0.247-0.050 0.337-0.139s0.14-0.21 0.14-0.337c0-1.313 1.068-2.381 2.381-2.381s2.381 1.068 2.381 2.381c0 0.126 0.050 0.247 0.14 0.337s0.21 0.139 0.337 0.139 0.247-0.050 0.337-0.139c0.089-0.089 0.139-0.21 0.139-0.337 0-0.331-0.050-0.65-0.141-0.952h0.616c1.051 0 1.905 0.854 1.905 1.905-0.001 0.504-0.201 0.988-0.557 1.345s-0.84 0.558-1.344 0.56l-0.003-0c-0.063-0-0.125 0.012-0.183 0.036s-0.11 0.059-0.155 0.104c-0.044 0.044-0.080 0.097-0.104 0.155s-0.036 0.12-0.036 0.183l0.001 0.005v2.853h-6.668v-2.855l0-0.002c0-0.063-0.012-0.125-0.036-0.183s-0.059-0.111-0.103-0.155c-0.044-0.044-0.097-0.079-0.155-0.103s-0.12-0.036-0.183-0.036l-0.003 0c-0.504-0.001-0.988-0.202-1.344-0.559s-0.557-0.841-0.557-1.345c0-1.051 0.854-1.905 1.905-1.905zM21.237 20.477h-10.474c-0.126 0-0.247 0.050-0.337 0.139s-0.139 0.21-0.139 0.337c0 0.126 0.050 0.247 0.139 0.337s0.21 0.139 0.337 0.139h10.474c0.126 0 0.247-0.050 0.337-0.139s0.139-0.21 0.139-0.337c0-0.126-0.050-0.247-0.139-0.337s-0.21-0.139-0.337-0.139zM21.237 21.906h-10.474c-0.126 0-0.247 0.050-0.337 0.139s-0.139 0.21-0.139 0.337c0 0.126 0.050 0.247 0.139 0.337s0.21 0.139 0.337 0.139h10.474c0.126 0 0.247-0.050 0.337-0.139s0.139-0.21 0.139-0.337c0-0.126-0.050-0.247-0.139-0.337s-0.21-0.139-0.337-0.139zM18.856 23.347h-5.713c-0.126 0-0.247 0.050-0.337 0.139s-0.139 0.21-0.139 0.337c0 0.126 0.050 0.247 0.139 0.337s0.21 0.139 0.337 0.139h5.713c0.126 0 0.247-0.050 0.337-0.139s0.139-0.21 0.139-0.337c0-0.126-0.050-0.247-0.139-0.337s-0.211-0.139-0.337-0.139z"></path>
</symbol>
<symbol id="icon-local" viewBox="0 0 32 32">
<path d="M16 0c6.47 0 11.733 5.131 11.733 11.438 0 2.496-0.809 4.867-2.341 6.857l-8.669 11.382c-0.022 0.028-0.055 0.038-0.079 0.063-0.433 0.452-1.058 0.339-1.367-0.063-2.496-3.247-7.072-9.312-8.832-11.599 0 0-0.001-0.002-0.001-0.003l-0.011-0.014c-1.418-1.942-2.167-4.232-2.167-6.623 0-6.307 5.264-11.438 11.733-11.438zM16 17.609c3.483 0 6.33-2.775 6.33-6.171s-2.847-6.171-6.33-6.171c-3.483 0-6.33 2.775-6.33 6.171s2.847 6.171 6.33 6.171z"></path>
</symbol>
<symbol id="icon-menu-close" viewBox="0 0 32 32">
<path d="M23.884 6.706l-7.884 7.884-7.884-7.884c-0.19-0.174-0.439-0.267-0.696-0.261s-0.502 0.11-0.684 0.292c-0.182 0.182-0.286 0.427-0.292 0.684s0.088 0.506 0.261 0.696l7.88 7.884-7.882 7.882c-0.096 0.092-0.173 0.202-0.226 0.324s-0.081 0.253-0.083 0.386 0.023 0.265 0.073 0.388c0.050 0.123 0.124 0.235 0.218 0.329s0.206 0.169 0.329 0.219 0.255 0.075 0.388 0.074c0.133-0.002 0.264-0.029 0.386-0.082s0.232-0.13 0.324-0.226l7.886-7.882 7.884 7.884c0.19 0.174 0.439 0.267 0.696 0.262s0.502-0.11 0.684-0.292c0.182-0.182 0.286-0.427 0.292-0.684s-0.088-0.506-0.262-0.696l-7.884-7.884 7.884-7.886c0.096-0.092 0.173-0.202 0.226-0.324s0.081-0.253 0.083-0.386c0.002-0.133-0.023-0.265-0.073-0.388s-0.124-0.235-0.218-0.329c-0.094-0.094-0.206-0.169-0.329-0.219s-0.255-0.075-0.388-0.074-0.264 0.029-0.386 0.082c-0.122 0.053-0.232 0.13-0.324 0.226v0.002z"></path>
</symbol>
<symbol id="icon-menu-burger" viewBox="0 0 32 32">
<path d="M1.067 7.467h29.867c0.589 0 1.067 0.478 1.067 1.067s-0.478 1.067-1.067 1.067h-29.867c-0.589 0-1.067-0.478-1.067-1.067s0.478-1.067 1.067-1.067z"></path>
<path d="M1.067 14.933h29.867c0.589 0 1.067 0.478 1.067 1.067s-0.478 1.067-1.067 1.067h-29.867c-0.589 0-1.067-0.478-1.067-1.067s0.478-1.067 1.067-1.067z"></path>
<path d="M1.067 22.4h29.867c0.589 0 1.067 0.478 1.067 1.067s-0.478 1.067-1.067 1.067h-29.867c-0.589 0-1.067-0.478-1.067-1.067s0.478-1.067 1.067-1.067z"></path>
</symbol>
<symbol id="icon-phone" viewBox="0 0 32 32">
<path d="M29.43 20.474c-1.959 0-3.882-0.299-5.705-0.886-0.893-0.297-1.991-0.025-2.536 0.521l-3.598 2.648c-4.172-2.171-6.743-4.676-8.939-8.713l2.636-3.416c0.685-0.667 0.931-1.641 0.636-2.554-0.605-1.786-0.912-3.66-0.912-5.571 0-1.38-1.152-2.503-2.567-2.503h-5.876c-1.416 0-2.568 1.123-2.568 2.503 0 15.819 13.202 28.689 29.43 28.689 1.416 0 2.568-1.123 2.568-2.503v-5.712c0-1.38-1.152-2.503-2.568-2.503z"></path>
</symbol>
<symbol id="icon-star-empty" viewBox="0 0 32 32">
<path fill="none" stroke="#edd501" style="stroke: var(--color4, #edd501)" stroke-linejoin="miter" stroke-linecap="butt" stroke-miterlimit="4" stroke-width="1.6" d="M16.628 3.698l2.385 7.34c0.321 0.989 1.243 1.658 2.283 1.658h7.718c0.775 0 1.097 0.992 0.47 1.447l-6.244 4.536c-0.841 0.611-1.193 1.694-0.872 2.683l2.385 7.34c0.24 0.737-0.604 1.35-1.231 0.894l-6.244-4.536c-0.841-0.611-1.98-0.611-2.821 0l-6.244 4.536c-0.627 0.456-1.471-0.157-1.231-0.894l2.385-7.34c0.321-0.989-0.031-2.072-0.872-2.683l-6.244-4.536c-0.627-0.456-0.305-1.447 0.47-1.447h7.718c1.040 0 1.961-0.669 2.283-1.658l2.385-7.34c0.239-0.737 1.282-0.737 1.522 0z"></path>
</symbol>
<symbol id="icon-star-full" viewBox="0 0 32 32">
<path fill="#edd501" style="fill: var(--color4, #edd501)" d="M14.612 3.45c0.479-1.474 2.564-1.474 3.043-0l2.385 7.34c0.214 0.659 0.828 1.106 1.522 1.106h7.718c1.55 0 2.194 1.983 0.94 2.894l-6.244 4.536c-0.561 0.407-0.795 1.13-0.581 1.789l2.385 7.34c0.479 1.474-1.208 2.7-2.462 1.789l-6.244-4.536c-0.561-0.408-1.32-0.408-1.881 0l-6.244 4.536c-1.254 0.911-2.941-0.315-2.462-1.789l2.385-7.34c0.214-0.659-0.020-1.381-0.581-1.789l-6.244-4.536c-1.254-0.911-0.61-2.894 0.94-2.894h7.718c0.693 0 1.307-0.446 1.522-1.106l2.385-7.34z"></path>
</symbol>
<symbol id="icon-twitter" viewBox="0 0 32 32">
<path d="M32 5.441c-1.19 0.583-2.458 0.97-3.78 1.158 1.36-0.908 2.398-2.334 2.886-4.053-1.268 0.845-2.668 1.442-4.16 1.775-1.204-1.433-2.92-2.321-4.792-2.321-3.632 0-6.556 3.295-6.556 7.335 0 0.581 0.044 1.14 0.152 1.672-5.454-0.297-10.28-3.219-13.522-7.671-0.566 1.098-0.898 2.354-0.898 3.707 0 2.54 1.17 4.791 2.914 6.095-1.054-0.022-2.088-0.364-2.964-0.903 0 0.022 0 0.051 0 0.080 0 3.564 2.274 6.524 5.256 7.206-0.534 0.163-1.116 0.241-1.72 0.241-0.42 0-0.844-0.027-1.242-0.125 0.85 2.904 3.262 5.039 6.13 5.109-2.232 1.952-5.066 3.128-8.134 3.128-0.538 0-1.054-0.027-1.57-0.101 2.906 2.095 6.35 3.291 10.064 3.291 12.072 0 18.672-11.178 18.672-20.868 0-0.324-0.010-0.637-0.024-0.948 1.302-1.033 2.396-2.323 3.288-3.807z"></path>
</symbol>
</defs>
</svg>
