<svg width="20" height="19" viewBox="0 0 20 19" fill="none" xmlns="http://www.w3.org/2000/svg">
<path d="M9.13232 1.65655C9.43167 0.735235 10.7351 0.735233 11.0344 1.65654L12.525 6.24393C12.6588 6.65595 13.0428 6.93492 13.476 6.93492H18.2995C19.2682 6.93492 19.671 8.17453 18.8873 8.74393L14.985 11.5791C14.6345 11.8337 14.4879 12.2851 14.6217 12.6971L16.1123 17.2845C16.4116 18.2058 15.3571 18.972 14.5734 18.4026L10.6712 15.5674C10.3207 15.3127 9.84608 15.3127 9.49559 15.5674L5.59332 18.4026C4.80961 18.972 3.75513 18.2058 4.05448 17.2845L5.54501 12.6971C5.67889 12.2851 5.53223 11.8337 5.18174 11.5791L1.27948 8.74393C0.495764 8.17453 0.898538 6.93492 1.86726 6.93492H6.69073C7.12395 6.93492 7.50791 6.65596 7.64178 6.24393L9.13232 1.65655Z" fill="#EDD501"/>
</svg>
