<svg aria-hidden="true" style="position: absolute; width: 0; height: 0; overflow: hidden;" version="1.1" xmlns="http://www.w3.org/2000/svg" xmlns:xlink="http://www.w3.org/1999/xlink">
<defs>
<symbol id="icon-star-empty" viewBox="0 0 34 32">
<path fill="none" stroke="#edd501" style="stroke: var(--color1, #edd501)" stroke-linejoin="miter" stroke-linecap="butt" stroke-miterlimit="4" stroke-width="1.6842" d="M17.503 3.050l2.51 7.726c0.338 1.041 1.308 1.746 2.403 1.746h8.124c0.816 0 1.155 1.044 0.495 1.523l-6.572 4.775c-0.885 0.643-1.256 1.784-0.918 2.824l2.51 7.726c0.252 0.776-0.636 1.421-1.296 0.941l-6.572-4.775c-0.885-0.643-2.084-0.643-2.97 0l-6.572 4.775c-0.66 0.48-1.548-0.166-1.296-0.941l2.51-7.726c0.338-1.041-0.032-2.181-0.918-2.824l-6.572-4.775c-0.66-0.479-0.321-1.523 0.495-1.523h8.124c1.094 0 2.064-0.705 2.403-1.746l2.51-7.726c0.252-0.776 1.35-0.776 1.602 0z"></path>
</symbol>
<symbol id="icon-star-full" viewBox="0 0 34 32">
<path fill="#edd501" style="fill: var(--color1, #edd501)" d="M15.381 2.79c0.504-1.552 2.699-1.552 3.204-0l2.51 7.726c0.225 0.694 0.872 1.164 1.602 1.164h8.124c1.632 0 2.31 2.088 0.99 3.047l-6.572 4.775c-0.59 0.429-0.837 1.189-0.612 1.883l2.51 7.726c0.504 1.552-1.272 2.842-2.592 1.883l-6.572-4.775c-0.59-0.429-1.39-0.429-1.98 0l-6.572 4.775c-1.32 0.959-3.096-0.331-2.592-1.883l2.51-7.726c0.225-0.694-0.022-1.454-0.612-1.883l-6.572-4.775c-1.32-0.959-0.642-3.047 0.99-3.047h8.124c0.73 0 1.376-0.47 1.602-1.164l2.51-7.726z"></path>
</symbol>
</defs>
</svg>
