<svg width="20" height="19" viewBox="0 0 20 19" fill="none" xmlns="http://www.w3.org/2000/svg">
<path d="M10.3923 1.81105L11.8828 6.39844C12.0836 7.01647 12.6596 7.43492 13.3094 7.43492H18.1329C18.6172 7.43492 18.8186 8.05473 18.4268 8.33942L14.5245 11.1746C13.9988 11.5566 13.7788 12.2336 13.9796 12.8516L15.4701 17.439C15.6198 17.8997 15.0925 18.2827 14.7007 17.998L10.7984 15.1629C10.2727 14.7809 9.5608 14.7809 9.03507 15.1629L5.13281 17.998C4.74095 18.2827 4.21371 17.8997 4.36338 17.439L5.85392 12.8516C6.05473 12.2336 5.83474 11.5566 5.30901 11.1746L1.40674 8.33943C1.01489 8.05472 1.21628 7.43492 1.70064 7.43492H6.5241C7.17394 7.43492 7.74988 7.01648 7.95069 6.39844L9.44122 1.81105C9.5909 1.3504 10.2426 1.3504 10.3923 1.81105Z" stroke="#EDD501"/>
</svg>
